<svg width="17" height="17" viewBox="0 0 17 17" fill="none" xmlns="http://www.w3.org/2000/svg">
<path d="M14.989 6.41802L11.0218 5.84146L9.24839 2.24615C9.19996 2.14771 9.12027 2.06802 9.02183 2.01959C8.77496 1.89771 8.47496 1.99927 8.35152 2.24615L6.57808 5.84146L2.61089 6.41802C2.50152 6.43365 2.40152 6.48521 2.32496 6.56334C2.2324 6.65847 2.18139 6.78646 2.18315 6.91918C2.18491 7.0519 2.23928 7.1785 2.33433 7.27115L5.20464 10.0696L4.52652 14.0211C4.51062 14.1131 4.52079 14.2076 4.55588 14.294C4.59097 14.3805 4.64958 14.4554 4.72506 14.5102C4.80054 14.565 4.88987 14.5976 4.98292 14.6042C5.07598 14.6108 5.16902 14.5913 5.25152 14.5477L8.79996 12.6821L12.3484 14.5477C12.4453 14.5993 12.5578 14.6165 12.6656 14.5977C12.9375 14.5508 13.1203 14.293 13.0734 14.0211L12.3953 10.0696L15.2656 7.27115C15.3437 7.19459 15.3953 7.09459 15.4109 6.98521C15.4531 6.71177 15.2625 6.45865 14.989 6.41802Z" fill="#FEA250"/>
</svg>
